<svg xmlns="http://www.w3.org/2000/svg" width="1024" height="600" viewBox="0 0 1024 600" role="img" aria-label="AI-generated mockup of the SmartP4 Switch connectivity settings screen">
  <rect width="1024" height="600" fill="#12172b"/>
  <rect width="1024" height="64" fill="#0f172a" opacity="0.96"/>
  <text x="12" y="18" fill="#cbd5e1" font-family="Arial, sans-serif" font-size="14">SmartP4 Switch v1.0</text>
  <text x="512" y="42" fill="#e2e8f0" font-family="Arial, sans-serif" font-size="26" text-anchor="middle">Kitchen Panel</text>
  <text x="24" y="48" fill="#94a3b8" font-family="Arial, sans-serif" font-size="14">Tap Scan to find networks</text>
  <rect x="0" y="64" width="64" height="536" fill="#0b1224"/>
  <rect x="8" y="148" width="48" height="48" rx="8" fill="#1e40af"/>
  <text x="32" y="180" fill="#ffffff" font-family="Arial, sans-serif" font-size="24" text-anchor="middle">⚙</text>
  <text x="96" y="104" fill="#e2e8f0" font-family="Arial, sans-serif" font-size="26">Device / Connectivity Settings</text>
  <rect x="96" y="124" width="872" height="430" rx="8" fill="#071122"/>
  <text x="120" y="164" fill="#e2e8f0" font-family="Arial, sans-serif" font-size="22">Device Settings</text>
  <rect x="120" y="184" width="824" height="44" rx="8" fill="#152238" stroke="#2a3a56"/>
  <text x="136" y="213" fill="#f8fafc" font-family="Arial, sans-serif" font-size="16">kitchen_panel</text>
  <rect x="120" y="242" width="824" height="44" rx="8" fill="#152238" stroke="#2a3a56"/>
  <text x="136" y="271" fill="#f8fafc" font-family="Arial, sans-serif" font-size="16">Kitchen Panel</text>
  <rect x="120" y="300" width="824" height="46" rx="8" fill="#334155"/>
  <text x="532" y="329" fill="#ffffff" font-family="Arial, sans-serif" font-size="16" text-anchor="middle">Apply Device Settings</text>
  <line x1="120" y1="378" x2="944" y2="378" stroke="#24324d"/>
  <text x="120" y="416" fill="#e2e8f0" font-family="Arial, sans-serif" font-size="22">WiFi &amp; MQTT Settings</text>
  <rect x="120" y="436" width="402" height="46" rx="8" fill="#2563eb"/>
  <text x="321" y="465" fill="#ffffff" font-family="Arial, sans-serif" font-size="16" text-anchor="middle">Scan</text>
  <rect x="542" y="436" width="402" height="46" rx="8" fill="#334155"/>
  <text x="743" y="465" fill="#ffffff" font-family="Arial, sans-serif" font-size="16" text-anchor="middle">Disconnect</text>
  <rect x="120" y="496" width="824" height="44" rx="8" fill="#152238" stroke="#2a3a56"/>
  <text x="136" y="524" fill="#f8fafc" font-family="Arial, sans-serif" font-size="16">HomeWiFi</text>
  <text x="1000" y="588" fill="#64748b" font-family="Arial, sans-serif" font-size="12" text-anchor="end">AI-generated mockup, not a screen photo</text>
</svg>
