<svg xmlns="http://www.w3.org/2000/svg" width="1024" height="600" viewBox="0 0 1024 600" role="img" aria-label="AI-generated mockup of the SmartP4 Switch main controls screen">
  <rect width="1024" height="600" fill="#12172b"/>
  <rect width="1024" height="64" fill="#0f172a" opacity="0.96"/>
  <text x="12" y="18" fill="#cbd5e1" font-family="Arial, sans-serif" font-size="14">SmartP4 Switch v1.0</text>
  <text x="512" y="42" fill="#e2e8f0" font-family="Arial, sans-serif" font-size="26" text-anchor="middle">Kitchen Panel</text>
  <text x="24" y="48" fill="#94a3b8" font-family="Arial, sans-serif" font-size="14">WiFi HomeWiFi (192.168.1.42)</text>
  <text x="948" y="43" fill="#3b82f6" font-family="Arial, sans-serif" font-size="28" text-anchor="middle">WiFi</text>
  <text x="1000" y="43" fill="#3b82f6" font-family="Arial, sans-serif" font-size="28" text-anchor="middle">MQ</text>
  <rect x="0" y="64" width="64" height="536" fill="#0b1224"/>
  <rect x="8" y="84" width="48" height="48" rx="8" fill="#1e40af"/>
  <text x="32" y="116" fill="#ffffff" font-family="Arial, sans-serif" font-size="24" text-anchor="middle">⌂</text>
  <rect x="8" y="148" width="48" height="48" rx="8" fill="#111827"/>
  <text x="32" y="180" fill="#e2e8f0" font-family="Arial, sans-serif" font-size="24" text-anchor="middle">⚙</text>
  <rect x="8" y="212" width="48" height="48" rx="8" fill="#111827"/>
  <text x="32" y="244" fill="#e2e8f0" font-family="Arial, sans-serif" font-size="22" text-anchor="middle">☰</text>
  <g transform="translate(104 102)">
    <rect width="270" height="176" rx="8" fill="#0b152a" stroke="#1e2b44"/>
    <text x="135" y="70" fill="#e2e8f0" font-family="Arial, sans-serif" font-size="38" text-anchor="middle">⌂</text>
    <text x="135" y="122" fill="#f8fafc" font-family="Arial, sans-serif" font-size="24" text-anchor="middle">Kitchen</text>
    <rect x="22" y="138" width="226" height="8" rx="4" fill="#3b82f6"/>
  </g>
  <g transform="translate(407 102)">
    <rect width="270" height="176" rx="8" fill="#0b152a" stroke="#1e2b44"/>
    <text x="135" y="70" fill="#e2e8f0" font-family="Arial, sans-serif" font-size="38" text-anchor="middle">☀</text>
    <text x="135" y="122" fill="#f8fafc" font-family="Arial, sans-serif" font-size="24" text-anchor="middle">Living</text>
    <rect x="22" y="138" width="226" height="8" rx="4" fill="#334155"/>
  </g>
  <g transform="translate(710 102)">
    <rect width="270" height="176" rx="8" fill="#0b152a" stroke="#1e2b44"/>
    <text x="135" y="70" fill="#e2e8f0" font-family="Arial, sans-serif" font-size="38" text-anchor="middle">↻</text>
    <text x="135" y="122" fill="#f8fafc" font-family="Arial, sans-serif" font-size="24" text-anchor="middle">Fan</text>
    <rect x="22" y="138" width="226" height="8" rx="4" fill="#3b82f6"/>
  </g>
  <g transform="translate(104 326)">
    <rect width="270" height="176" rx="8" fill="#0b152a" stroke="#1e2b44"/>
    <text x="135" y="70" fill="#e2e8f0" font-family="Arial, sans-serif" font-size="38" text-anchor="middle">▣</text>
    <text x="135" y="122" fill="#f8fafc" font-family="Arial, sans-serif" font-size="24" text-anchor="middle">Movie</text>
    <text x="135" y="150" fill="#94a3b8" font-family="Arial, sans-serif" font-size="14" text-anchor="middle">Scene</text>
  </g>
  <g transform="translate(407 326)">
    <rect width="270" height="176" rx="8" fill="#0b152a" stroke="#1e2b44"/>
    <text x="135" y="70" fill="#e2e8f0" font-family="Arial, sans-serif" font-size="38" text-anchor="middle">☾</text>
    <text x="135" y="122" fill="#f8fafc" font-family="Arial, sans-serif" font-size="24" text-anchor="middle">Night</text>
    <text x="135" y="150" fill="#94a3b8" font-family="Arial, sans-serif" font-size="14" text-anchor="middle">Scene</text>
  </g>
  <g transform="translate(710 326)">
    <rect width="270" height="176" rx="8" fill="#0b152a" stroke="#1e2b44"/>
    <text x="135" y="70" fill="#e2e8f0" font-family="Arial, sans-serif" font-size="38" text-anchor="middle">⚠</text>
    <text x="135" y="122" fill="#f8fafc" font-family="Arial, sans-serif" font-size="24" text-anchor="middle">Away</text>
    <text x="135" y="150" fill="#94a3b8" font-family="Arial, sans-serif" font-size="14" text-anchor="middle">Scene</text>
  </g>
  <text x="1000" y="588" fill="#64748b" font-family="Arial, sans-serif" font-size="12" text-anchor="end">AI-generated mockup, not a screen photo</text>
</svg>
