<svg xmlns="http://www.w3.org/2000/svg" width="800" height="480" viewBox="0 0 800 480">
  <rect width="800" height="480" fill="#12172b"/>
  <rect x="0" y="0" width="800" height="54" fill="#071122"/>
  <text x="28" y="35" fill="#38bdf8" font-family="Arial, sans-serif" font-size="24">WiFi</text>
  <text x="400" y="35" text-anchor="middle" fill="#e2e8f0" font-family="Arial, sans-serif" font-size="24" font-weight="700">ESP P4 Zigbee Switch</text>
  <text x="700" y="35" fill="#ef4444" font-family="Arial, sans-serif" font-size="24">MQTT</text>
  <rect x="0" y="54" width="76" height="426" fill="#071122"/>
  <rect x="12" y="76" width="52" height="52" rx="8" fill="#0f1b33"/>
  <text x="38" y="109" text-anchor="middle" fill="#94a3b8" font-family="Arial, sans-serif" font-size="24">H</text>
  <rect x="12" y="144" width="52" height="52" rx="8" fill="#0f1b33"/>
  <text x="38" y="177" text-anchor="middle" fill="#94a3b8" font-family="Arial, sans-serif" font-size="24">S</text>
  <rect x="12" y="212" width="52" height="52" rx="8" fill="#2563eb"/>
  <text x="38" y="245" text-anchor="middle" fill="#ffffff" font-family="Arial, sans-serif" font-size="24">B</text>
  <text x="112" y="92" fill="#e2e8f0" font-family="Arial, sans-serif" font-size="24" font-weight="700">Button Settings</text>
  <rect x="112" y="112" width="640" height="326" rx="8" fill="#071122"/>
  <text x="136" y="149" fill="#e2e8f0" font-family="Arial, sans-serif" font-size="20" font-weight="700">Button Config</text>
  <rect x="136" y="166" width="592" height="56" rx="8" fill="#0f1b33" stroke="#24324d"/>
  <text x="156" y="201" fill="#e2e8f0" font-family="Arial, sans-serif" font-size="18">Buttons:</text>
  <rect x="260" y="174" width="40" height="40" rx="8" fill="#334155"/>
  <text x="280" y="202" text-anchor="middle" fill="#ffffff" font-family="Arial, sans-serif" font-size="24">-</text>
  <text x="334" y="201" text-anchor="middle" fill="#ffffff" font-family="Arial, sans-serif" font-size="22" font-weight="700">6</text>
  <rect x="368" y="174" width="40" height="40" rx="8" fill="#334155"/>
  <text x="388" y="202" text-anchor="middle" fill="#ffffff" font-family="Arial, sans-serif" font-size="24">+</text>
  <g font-family="Arial, sans-serif" font-size="16">
    <rect x="136" y="236" width="592" height="58" rx="8" fill="#0b152a" stroke="#1e2b44"/>
    <text x="158" y="271" fill="#94a3b8">1:</text><rect x="196" y="244" width="246" height="42" rx="7" fill="#152238" stroke="#2a3a56"/><text x="214" y="271" fill="#f8fafc">Living</text><rect x="456" y="244" width="132" height="42" rx="7" fill="#152238" stroke="#2a3a56"/><text x="474" y="271" fill="#f8fafc">Light</text><rect x="602" y="244" width="104" height="42" rx="7" fill="#152238" stroke="#2a3a56"/><text x="620" y="271" fill="#f8fafc">Switch</text>
    <rect x="136" y="304" width="592" height="58" rx="8" fill="#0b152a" stroke="#1e2b44"/>
    <text x="158" y="339" fill="#94a3b8">2:</text><rect x="196" y="312" width="246" height="42" rx="7" fill="#152238" stroke="#2a3a56"/><text x="214" y="339" fill="#f8fafc">Kitchen</text><rect x="456" y="312" width="132" height="42" rx="7" fill="#152238" stroke="#2a3a56"/><text x="474" y="339" fill="#f8fafc">Home</text><rect x="602" y="312" width="104" height="42" rx="7" fill="#152238" stroke="#2a3a56"/><text x="620" y="339" fill="#f8fafc">Switch</text>
    <rect x="136" y="372" width="592" height="46" rx="8" fill="#2563eb"/>
    <text x="432" y="401" text-anchor="middle" fill="#ffffff" font-size="16" font-weight="700">Apply Button Config</text>
  </g>
</svg>
