<svg xmlns="http://www.w3.org/2000/svg" width="800" height="480" viewBox="0 0 800 480">
  <rect width="800" height="480" fill="#12172b"/>
  <rect x="0" y="0" width="800" height="54" fill="#071122"/>
  <text x="28" y="35" fill="#38bdf8" font-family="Arial, sans-serif" font-size="24">WiFi</text>
  <text x="400" y="35" text-anchor="middle" fill="#e2e8f0" font-family="Arial, sans-serif" font-size="24" font-weight="700">ESP P4 Zigbee Switch</text>
  <text x="700" y="35" fill="#ef4444" font-family="Arial, sans-serif" font-size="24">MQTT</text>
  <rect x="0" y="54" width="76" height="426" fill="#071122"/>
  <rect x="12" y="76" width="52" height="52" rx="8" fill="#2563eb"/>
  <text x="38" y="109" text-anchor="middle" fill="#ffffff" font-family="Arial, sans-serif" font-size="24">H</text>
  <rect x="12" y="144" width="52" height="52" rx="8" fill="#0f1b33"/>
  <text x="38" y="177" text-anchor="middle" fill="#94a3b8" font-family="Arial, sans-serif" font-size="24">S</text>
  <rect x="12" y="212" width="52" height="52" rx="8" fill="#0f1b33"/>
  <text x="38" y="245" text-anchor="middle" fill="#94a3b8" font-family="Arial, sans-serif" font-size="24">B</text>
  <text x="112" y="104" fill="#e2e8f0" font-family="Arial, sans-serif" font-size="26" font-weight="700">Home</text>
  <g font-family="Arial, sans-serif" font-weight="700">
    <rect x="112" y="132" width="200" height="126" rx="8" fill="#0b152a" stroke="#1e2b44"/>
    <text x="212" y="184" text-anchor="middle" fill="#f8fafc" font-size="22">BTN1</text>
    <circle cx="212" cy="219" r="14" fill="#2563eb"/>
    <rect x="332" y="132" width="200" height="126" rx="8" fill="#0b152a" stroke="#1e2b44"/>
    <text x="432" y="184" text-anchor="middle" fill="#f8fafc" font-size="22">BTN2</text>
    <circle cx="432" cy="219" r="14" fill="#334155"/>
    <rect x="552" y="132" width="200" height="126" rx="8" fill="#0b152a" stroke="#1e2b44"/>
    <text x="652" y="184" text-anchor="middle" fill="#f8fafc" font-size="22">BTN3</text>
    <circle cx="652" cy="219" r="14" fill="#334155"/>
    <rect x="112" y="278" width="200" height="126" rx="8" fill="#0b152a" stroke="#1e2b44"/>
    <text x="212" y="330" text-anchor="middle" fill="#f8fafc" font-size="22">BTN4</text>
    <circle cx="212" cy="365" r="14" fill="#334155"/>
    <rect x="332" y="278" width="200" height="126" rx="8" fill="#0b152a" stroke="#1e2b44"/>
    <text x="432" y="330" text-anchor="middle" fill="#f8fafc" font-size="22">Scene</text>
    <circle cx="432" cy="365" r="14" fill="#f59e0b"/>
    <rect x="552" y="278" width="200" height="126" rx="8" fill="#0b152a" stroke="#1e2b44"/>
    <text x="652" y="330" text-anchor="middle" fill="#f8fafc" font-size="22">BTN6</text>
    <circle cx="652" cy="365" r="14" fill="#334155"/>
  </g>
</svg>
